<?xml version="1.0" encoding="UTF-8" standalone="no" ?>
<!DOCTYPE svg PUBLIC "-//W3C//DTD SVG 1.1//EN" "http://www.w3.org/Graphics/SVG/1.1/DTD/svg11.dtd">
<svg xmlns="http://www.w3.org/2000/svg" xmlns:xlink="http://www.w3.org/1999/xlink" version="1.1" width="300" height="300" viewBox="0 0 300 300" xml:space="preserve">
<desc>Created with Fabric.js 5.2.4</desc>
<defs>
</defs>
<rect x="0" y="0" width="100%" height="100%" fill="transparent"></rect>
<g transform="matrix(1 0 0 1 150 150)" id="cd1488a4-3fb2-4122-9b7e-1d6d862958f1"  >
<rect style="stroke: none; stroke-width: 1; stroke-dasharray: none; stroke-linecap: butt; stroke-dashoffset: 0; stroke-linejoin: miter; stroke-miterlimit: 4; fill: rgb(255,255,255); fill-rule: nonzero; opacity: 1; visibility: hidden;" vector-effect="non-scaling-stroke"  x="-150" y="-150" rx="0" ry="0" width="300" height="300" />
</g>
<g transform="matrix(Infinity NaN NaN Infinity 0 0)" id="aed8a619-4d3b-4081-a734-6b31879c6144"  >
</g>
<g transform="matrix(8.33 0 0 8.33 254 69)"  >
<g style="opacity: 1;"   >
		<g transform="matrix(2.22 0 0 2.22 0 0)"  >
<rect style="stroke: none; stroke-width: 1; stroke-dasharray: none; stroke-linecap: butt; stroke-dashoffset: 0; stroke-linejoin: miter; stroke-miterlimit: 4; fill: rgb(6,82,44); fill-rule: nonzero; opacity: 1;" vector-effect="non-scaling-stroke"  x="-18" y="-18" rx="0" ry="0" width="36" height="36" />
</g>
		<g transform="matrix(-2.19 -0.35 0.35 -2.19 -11.11 20)"  >
<rect style="stroke: none; stroke-width: 1; stroke-dasharray: none; stroke-linecap: butt; stroke-dashoffset: 0; stroke-linejoin: miter; stroke-miterlimit: 4; fill: rgb(59,151,78); fill-rule: nonzero; opacity: 1;" vector-effect="non-scaling-stroke"  x="-18" y="-18" rx="36" ry="36" width="36" height="36" />
</g>
		<g transform="matrix(2.19 -0.35 0.35 2.19 -10.11 16.31)"  >
<path style="stroke: none; stroke-width: 1; stroke-dasharray: none; stroke-linecap: butt; stroke-dashoffset: 0; stroke-linejoin: miter; stroke-miterlimit: 4; fill: rgb(255,255,255); fill-rule: nonzero; opacity: 1;" vector-effect="non-scaling-stroke"  transform=" translate(-18, -20.88)" d="M 13 19 C 13 21.071067811865476 15.238576250846034 22.75 18 22.75 C 20.761423749153966 22.75 23 21.071067811865476 23 19" stroke-linecap="round" />
</g>
		<g transform="matrix(2.19 -0.35 0.35 2.19 -28.07 5.94)"  >
<rect style="stroke: none; stroke-width: 1; stroke-dasharray: none; stroke-linecap: butt; stroke-dashoffset: 0; stroke-linejoin: miter; stroke-miterlimit: 4; fill: rgb(255,255,255); fill-rule: nonzero; opacity: 1;" vector-effect="non-scaling-stroke"  x="-0.75" y="-1" rx="1" ry="1" width="1.5" height="2" />
</g>
		<g transform="matrix(2.19 -0.35 0.35 2.19 2.66 1.07)"  >
<rect style="stroke: none; stroke-width: 1; stroke-dasharray: none; stroke-linecap: butt; stroke-dashoffset: 0; stroke-linejoin: miter; stroke-miterlimit: 4; fill: rgb(255,255,255); fill-rule: nonzero; opacity: 1;" vector-effect="non-scaling-stroke"  x="-0.75" y="-1" rx="1" ry="1" width="1.5" height="2" />
</g>
</g>
</g>
<g transform="matrix(NaN NaN NaN NaN 0 0)"  >
<g style=""   >
</g>
</g>
<g transform="matrix(NaN NaN NaN NaN 0 0)"  >
<g style=""   >
</g>
</g>
<g transform="matrix(NaN NaN NaN NaN 0 0)"  >
<g style=""   >
</g>
</g>
</svg>